<svg xmlns="http://www.w3.org/2000/svg" viewBox="0 0 163.5 12.57"><defs><style>.cls-1{opacity:0.5;}</style></defs><title>アセット 1</title><g id="レイヤー_2" data-name="レイヤー 2"><g id="レイヤー_1-2" data-name="レイヤー 1"><g class="cls-1"><path d="M1,1.87l1-.33V3.06H3.68v.78H2V7.62c0,.82.25,1.28.89,1.28a1.93,1.93,0,0,0,.67-.1l.06.77a2.43,2.43,0,0,1-1,.16C1.05,9.73,1,8.29,1,7.59V3.84H0V3.06H1Z"/><path d="M10.22,9.59h-1V5.73c0-1.06-.38-2-1.51-2A1.78,1.78,0,0,0,6,5.58v4H5V0H6V4.07H6A2.4,2.4,0,0,1,8,2.9c.8,0,2.18.49,2.18,2.71Z"/><path d="M16.79,9.32a4.8,4.8,0,0,1-2.06.41,3,3,0,0,1-3-3.3c0-2,1.15-3.53,2.91-3.53,2,0,2.53,1.85,2.53,3,0,.23,0,.39,0,.55H12.66c0,1.81,1,2.49,2.22,2.49a4.08,4.08,0,0,0,1.71-.33ZM16.15,5.7c0-.89-.36-2-1.64-2s-1.73,1.14-1.83,2Z"/><path d="M27.9,9.59h-1L24,4.79a27.71,27.71,0,0,1-1.65-3h-.05c.09,1.17.1,2.23.1,3.82v4h-.93V.46h1l2.95,4.8a28.76,28.76,0,0,1,1.59,3h0C27,7,27,5.88,27,4.44v-4h.95Z"/><path d="M34.18,8a9.39,9.39,0,0,0,.1,1.55h-.91l-.1-.84h0a2.27,2.27,0,0,1-1.93,1A1.81,1.81,0,0,1,29.4,7.88c0-1.57,1.37-2.42,3.79-2.41,0-.55,0-1.8-1.49-1.8a2.83,2.83,0,0,0-1.59.47l-.24-.69a3.77,3.77,0,0,1,2-.55c1.84,0,2.32,1.31,2.32,2.6Zm-1-1.84c-1.24,0-2.78.18-2.78,1.56A1.09,1.09,0,0,0,31.55,9,1.59,1.59,0,0,0,33.2,7.44Z"/><path d="M36.37,1.87l1-.33V3.06H39v.78H37.35V7.62c0,.82.26,1.28.89,1.28a1.89,1.89,0,0,0,.67-.1l.06.77a2.4,2.4,0,0,1-1,.16c-1.58,0-1.63-1.44-1.63-2.14V3.84h-1V3.06h1Z"/><path d="M43.41,4.05a2.38,2.38,0,0,0-1.27-.38,1,1,0,0,0-1.1,1c0,.57.37.83,1.21,1.19,1,.43,1.67,1,1.67,2C43.92,9,43,9.73,41.6,9.73a3.36,3.36,0,0,1-1.71-.45l.27-.77A3,3,0,0,0,41.64,9C42.51,9,43,8.49,43,7.9S42.6,7,41.73,6.61c-1.1-.44-1.66-1.06-1.66-1.85A1.93,1.93,0,0,1,42.2,2.9a2.85,2.85,0,0,1,1.5.4Z"/><path d="M50.56,7.86c0,.67,0,1.23.06,1.73h-.9l0-1h0a2.36,2.36,0,0,1-2.09,1.18c-1,0-2.14-.57-2.14-2.82V3.06h1V6.74c0,1.27.37,2.16,1.47,2.16a1.73,1.73,0,0,0,1.7-1.78V3.06h1Z"/><path d="M57.46,3.06,55.72,7.69C55,9.81,54.39,11,53.58,11.8a3.22,3.22,0,0,1-1.33.77L52,11.73a3.74,3.74,0,0,0,2.11-2.35A.8.8,0,0,0,54,9.1l-2.32-6h1.1l1.42,4a13.09,13.09,0,0,1,.42,1.37h0c.11-.4.26-.89.42-1.4l1.32-3.94Z"/><path d="M62.85,8A8.42,8.42,0,0,0,63,9.59H62l-.1-.84h0a2.25,2.25,0,0,1-1.93,1,1.81,1.81,0,0,1-1.9-1.86c0-1.57,1.36-2.42,3.79-2.41,0-.55,0-1.8-1.49-1.8a2.88,2.88,0,0,0-1.6.47l-.24-.69a3.81,3.81,0,0,1,2-.55c1.84,0,2.32,1.31,2.32,2.6Zm-1-1.84c-1.24,0-2.78.18-2.78,1.56A1.08,1.08,0,0,0,60.21,9a1.6,1.6,0,0,0,1.66-1.53Z"/><path d="M67.83,4.05a2.38,2.38,0,0,0-1.27-.38,1,1,0,0,0-1.1,1c0,.57.37.83,1.21,1.19,1,.43,1.67,1,1.67,2,0,1.16-.89,1.93-2.32,1.93a3.36,3.36,0,0,1-1.71-.45l.27-.77A3,3,0,0,0,66.06,9c.87,0,1.3-.47,1.3-1.06S67,7,66.15,6.61c-1.1-.44-1.66-1.06-1.66-1.85A1.93,1.93,0,0,1,66.62,2.9a2.87,2.87,0,0,1,1.5.4Z"/><path d="M75,7.86c0,.67,0,1.23.06,1.73h-.9l0-1h0A2.36,2.36,0,0,1,72,9.74c-1,0-2.14-.57-2.14-2.82V3.06h1V6.74c0,1.27.37,2.16,1.47,2.16A1.73,1.73,0,0,0,74,7.12V3.06h1Z"/><path d="M85.85,9.59h-1V5.82c0-1.27-.46-2.09-1.44-2.09A1.67,1.67,0,0,0,81.9,5.48V9.59h-1v-4c0-1.05-.44-1.84-1.37-1.84a1.77,1.77,0,0,0-1.6,1.86v4H77V4.74c0-.67,0-1.15,0-1.69h.87l.06,1h0a2.19,2.19,0,0,1,2-1.2,1.88,1.88,0,0,1,1.79,1.31h0a2.29,2.29,0,0,1,2.1-1.31c.8,0,2.07.52,2.07,2.76Z"/><path d="M88.28,1.91a.65.65,0,0,1-.65-.69.66.66,0,0,1,.66-.67.64.64,0,0,1,.65.67A.64.64,0,0,1,88.28,1.91Zm.51,7.68h-1V3.06h1Z"/><path d="M97.11,4.7A2.33,2.33,0,0,1,99,7a2.38,2.38,0,0,1-.73,1.8,4.11,4.11,0,0,1-3,.87,14.74,14.74,0,0,1-1.69-.1v-9a9.7,9.7,0,0,1,2-.19A3.55,3.55,0,0,1,98,1.07a2,2,0,0,1,.68,1.58,2.19,2.19,0,0,1-1.55,2Zm-1.45-.33c1.21,0,2-.7,2-1.64h0c0-1.08-.79-1.55-2-1.55a4.08,4.08,0,0,0-1,.09V4.37ZM94.59,8.82a6,6,0,0,0,1,.06C96.82,8.88,98,8.38,98,7s-1.19-1.87-2.4-1.87h-1Z"/><path d="M104.8,8a9.39,9.39,0,0,0,.1,1.55H104l-.1-.84h0a2.28,2.28,0,0,1-1.94,1A1.81,1.81,0,0,1,100,7.88c0-1.57,1.36-2.42,3.79-2.41,0-.55,0-1.8-1.49-1.8a2.83,2.83,0,0,0-1.59.47l-.24-.69a3.77,3.77,0,0,1,2-.55c1.84,0,2.32,1.31,2.32,2.6Zm-1-1.84c-1.24,0-2.78.18-2.78,1.56A1.09,1.09,0,0,0,102.17,9a1.59,1.59,0,0,0,1.65-1.53Z"/><path d="M112,9.59h-1V5.73c0-1.06-.38-2-1.52-2a1.78,1.78,0,0,0-1.72,1.86v4h-1V4.74c0-.67,0-1.17,0-1.69h.89l.05,1.06h0a2.34,2.34,0,0,1,2.1-1.21c.81,0,2.21.49,2.21,2.71Z"/><path d="M119.17,8c0,.52,0,1.17,0,1.61h-.88l0-1.11h0a2.31,2.31,0,0,1-2.13,1.26c-1.51,0-2.69-1.31-2.69-3.32,0-2.21,1.3-3.5,2.82-3.5a2.1,2.1,0,0,1,1.91,1h0V0h1Zm-1-2.31a1.81,1.81,0,0,0-1.76-1.95c-1.24,0-2,1.15-2,2.65s.65,2.55,1.93,2.55a1.88,1.88,0,0,0,1.8-2Z"/><path d="M123.66,9a.73.73,0,0,1,.72-.78.71.71,0,0,1,.7.78.71.71,0,1,1-1.42,0Z"/><path d="M131.47,9.59h-5.32V9l.88-.92c2.13-2.16,3.21-3.47,3.21-4.93a1.62,1.62,0,0,0-1.71-1.85,3,3,0,0,0-1.8.75l-.34-.7a3.52,3.52,0,0,1,2.33-.87A2.39,2.39,0,0,1,131.25,3c0,1.69-1.19,3.13-3.05,5l-.7.74v0h4Z"/><path d="M132.66,5.13c0-3.14,1.22-4.66,2.9-4.66s2.75,1.61,2.75,4.54c0,3.12-1.1,4.73-2.88,4.73C133.8,9.74,132.66,8.13,132.66,5.13Zm4.64-.07c0-2.24-.54-3.79-1.8-3.79-1.07,0-1.82,1.43-1.82,3.79s.66,3.86,1.78,3.86C136.79,8.92,137.3,7.2,137.3,5.06Z"/><path d="M141.91,9.59v-8h0l-1.47.85-.24-.74,1.86-1h.85v9Z"/><path d="M150.51,5.35a2.54,2.54,0,0,1-2.06,1A2.5,2.5,0,0,1,146,3.62,3,3,0,0,1,148.81.47c1.68,0,2.74,1.46,2.74,3.75,0,3-1.51,5.06-3.81,5.42a5.67,5.67,0,0,1-1.07.09V8.9a4.71,4.71,0,0,0,.93-.06c1.51-.22,2.65-1.44,3-3.49ZM147,3.56a1.79,1.79,0,0,0,1.72,2,1.81,1.81,0,0,0,1.86-1.46c0-1.73-.64-2.89-1.83-2.89C147.68,1.24,147,2.22,147,3.56Z"/><path d="M159.43.82A4.07,4.07,0,0,1,163.5,5a4.1,4.1,0,1,1-8.19,0A4.12,4.12,0,0,1,159.43.82Zm0,7.84A3.51,3.51,0,0,0,162.87,5,3.47,3.47,0,1,0,156,5,3.5,3.5,0,0,0,159.41,8.66Zm1.91-1.57a3,3,0,0,1-1.67.43,2.34,2.34,0,0,1-2.48-2.46,2.49,2.49,0,0,1,2.58-2.53,2.89,2.89,0,0,1,1.49.36l-.15.5a3,3,0,0,0-1.32-.32,1.81,1.81,0,0,0-1.94,2,1.84,1.84,0,0,0,2,2,2.75,2.75,0,0,0,1.38-.37Z"/></g></g></g></svg>