<svg xmlns="http://www.w3.org/2000/svg" viewBox="0 0 39.54 21.02"><defs><style>.cls-1{fill:#030074;}</style></defs><title>アセット 8</title><g id="レイヤー_2" data-name="レイヤー 2"><g id="レイヤー_1-2" data-name="レイヤー 1"><path class="cls-1" d="M0,20.27c2.22-.12,2.57-.54,2.57-2.4v-14c0-2.07-.28-2.28-2.5-2.46V1A15.69,15.69,0,0,0,4.24,0V17.87c0,1.86.31,2.28,2.61,2.4v.42H0Z"/><path class="cls-1" d="M6.6,20.27c2.23-.15,2.57-.54,2.57-2.28V11.76c0-1.92-.24-2.07-2.22-2.37V9a15.56,15.56,0,0,0,3.89-1.2V18c0,1.74.35,2.13,2.61,2.28v.42H6.6ZM11.36,2.46A1.29,1.29,0,0,1,10,3.66a1.31,1.31,0,0,1-1.32-1.2,1.32,1.32,0,0,1,2.64,0Z"/><path class="cls-1" d="M28.67,8.64c-1.91.27-2.16.54-3.37,2.46C24.22,12.83,22,16.82,20,21h-.56c-1.32-3.36-2.88-6.75-4.31-9.89-.94-1.92-1.08-2.22-3.23-2.49V8.22h6.32v.42c-1.25.21-1.77.33-1.77.9a3.42,3.42,0,0,0,.42,1.29c.73,1.65,2.19,5.24,3.37,7.73,1.42-2.58,4.17-7.85,4.17-8.84,0-.69-.59-.9-1.91-1.08V8.22h6.15Z"/><path class="cls-1" d="M39.27,18.41A8.63,8.63,0,0,1,34.05,21c-4.09,0-6.63-2.82-6.63-6,0-4.4,4.17-7.13,7-7.13,3,0,5.14,2.1,5.14,4.22,0,.61,0,.69-.59.78s-5,.42-9.79.54c0,4.56,3.12,6.18,5.52,6.18A6.07,6.07,0,0,0,38.88,18Zm-9.91-5.93c.8,0,5.7-.07,7.2-.1.87,0,.87-.29.87-.47,0-1.68-1.46-3.18-4-3.18A4.41,4.41,0,0,0,29.36,12.48Z"/></g></g></svg>