<svg xmlns="http://www.w3.org/2000/svg" viewBox="0 0 352.51 33.21"><defs><style>.cls-1{opacity:0.49;}.cls-2{fill:#009050;}.cls-3{fill:#87f4f1;}.cls-4{fill:#4bbdc5;}</style></defs><title>アセット 1</title><g id="レイヤー_2" data-name="レイヤー 2"><g id="レイヤー_1-2" data-name="レイヤー 1"><g class="cls-1"><path d="M352.76,7.36c0,.9-.54,1.22-.93,1.22s-.72-.18-1-1a8.59,8.59,0,0,0-3.41-4.2l.61-.65C350.75,3.88,352.76,5.85,352.76,7.36Z" transform="translate(-0.25 -0.25)"/><path d="M346.84,16.77c2.12,1.22,3.09,1.94,3.09,3.12a.92.92,0,0,1-.87,1c-.82,0-1.83-1-2.72-1.76-1.58-1.37-5.28-3.09-9.84-4.31,0,2.62,0,5.35,0,7.57,0,1.23.11,7.15.11,8.48,0,1.51-.57,1.94-1.08,1.94-1.29,0-1.65-3.45-1.83-4.17a3.07,3.07,0,0,0,.61-1.47c.29-2.41.36-4.63.36-12.21,0-3.34,0-6.75-.11-8.33s-.28-3.23-2.69-3.23l0,0a1.65,1.65,0,0,1,1.43-1c1.44,0,4.24,1,4.24,2.23,0,.32-.36.54-.58.93a2.62,2.62,0,0,0-.21,1c-.07,1.5-.11,4.3-.18,7.39C340.84,14.54,344.76,15.58,346.84,16.77Z" transform="translate(-0.25 -0.25)"/><path d="M349.06,9.66c0,.9-.53,1.22-.93,1.22s-.72-.18-1-1a8.35,8.35,0,0,0-3.41-4.23l.61-.68C347.05,6.18,349.06,8.15,349.06,9.66Z" transform="translate(-0.25 -0.25)"/><path d="M318,7.72l.93.57A44.93,44.93,0,0,1,297,29.55c-1.73.79-1.66,1.65-2.41,1.65-1.11,0-3.55-1.72-3.55-3.63a2,2,0,0,1,.86-1.25,2.43,2.43,0,0,0,2.22,2C296.46,28.33,311.15,21.22,318,7.72Z" transform="translate(-0.25 -0.25)"/><path d="M300.91,11.56a1,1,0,0,1-1.07,1.08c-.62,0-1.33-.9-1.73-1.4a17.39,17.39,0,0,0-7.5-5l.32-.76C295.46,6.21,300.91,8.76,300.91,11.56Z" transform="translate(-0.25 -0.25)"/><path d="M283.13,25.85c0,.94-.07,1.9-1,1.9-.68,0-1-.46-1.36-1.61a30.68,30.68,0,0,0-10.27-15.33l.79-.79C277.5,14.07,283.13,22,283.13,25.85Z" transform="translate(-0.25 -0.25)"/><path d="M283.06,7.65c0,.89-.54,1.22-.93,1.22s-.72-.18-1-1a9.53,9.53,0,0,0-3.52-4.56l.61-.65C280.91,3.81,283.06,6.25,283.06,7.65Z" transform="translate(-0.25 -0.25)"/><path d="M278.25,9.41c0,.89-.54,1.22-.93,1.22s-.72-.18-1-1a9,9,0,0,0-3.52-4.41l.61-.72C275.85,5.57,278.25,7.65,278.25,9.41Z" transform="translate(-0.25 -0.25)"/><path d="M263.1,11.42c0,.79-.65.32-1.29,2.26A33.69,33.69,0,0,1,252,28.4l-.79-.75c6-5.89,8.83-14.33,8.83-15.84,0-1.15-.89-1.86-2.29-1.86l0,0a1.43,1.43,0,0,1,1.47-.9C260.69,9,263.1,10.38,263.1,11.42Z" transform="translate(-0.25 -0.25)"/><path d="M246.87,24.31a.7.7,0,0,1-.72.75c-.58,0-.93-.32-1.69-1a19.19,19.19,0,0,0-3.77-2.76C239,27,235.81,31.06,230,32.71l-.5-.79c4.91-1.62,8.43-5.93,9.69-11.38a27.94,27.94,0,0,0-11-2.87c-.32,1-.68,1.93-1,2.83-1.51,3.95-4.49,8.26-7.69,8.26-2.47,0-3.66-1.94-3.66-4.2,0-3.63,4-7.61,11.17-7.94a76.92,76.92,0,0,0,2.83-11.09c0-.22-.07-.32-.28-.32a30.76,30.76,0,0,0-5.39,1.5,4.11,4.11,0,0,1-2.15.72,2.93,2.93,0,0,1-2.77-2.76,1.79,1.79,0,0,1,.83-1.33l.11,0c.07,1.79,1.5,1.9,2.26,1.9a26.72,26.72,0,0,0,6-1.15c1-.4,1.33-1.15,1.9-1.15,1,0,2.77,1.19,2.77,1.83s-.9.58-1.26,1.19a17.56,17.56,0,0,0-1.26,3.8c-.53,1.94-1.29,4.38-2.08,6.79a34.27,34.27,0,0,1,11,2.4,30.94,30.94,0,0,0,1-7c0-.94-.14-1.62-1.94-1.62a2.73,2.73,0,0,0-.57,0l-.15-.15a2,2,0,0,1,1.87-1.07c2.15,0,3.37,1.22,3.37,1.9a1.87,1.87,0,0,1-.43,1.08,2.54,2.54,0,0,0-.39,1c-.32,2-.75,4.45-1.26,6.53C244.5,21.22,246.87,22.73,246.87,24.31Zm-21-3.95c.28-.76.64-1.69.93-2.66-5,.32-9.3,2.66-9.3,7,0,1.55.65,2.44,1.87,2.44C221.84,27.14,224.07,25,225.83,20.36Z" transform="translate(-0.25 -0.25)"/><path class="cls-2" d="M226.76,17.7c-.29,1-.65,1.9-.93,2.66-1.76,4.63-4,6.78-6.5,6.78-1.22,0-1.87-.89-1.87-2.44C217.46,20.36,221.73,18,226.76,17.7Z" transform="translate(-0.25 -0.25)"/><path d="M210.92,9c0,.28-.46.53-.93.53-1.11,0-2.52-.5-4.6-.57-.39,0-.89,0-1.4,0-1.9,0-4.38.11-6,.22,0,1-.08,5.67,0,6.75.71,1.22,1.07,2.76,1.07,5.6,0,5.24-2.87,9.8-10,12l-.51-.79c5.75-2.19,8.58-6.06,8.76-9.91-.79,1.37-2.37,2.19-4.63,2.19a5.32,5.32,0,0,1-5.35-5.45,5.83,5.83,0,0,1,5.82-6.07,5.19,5.19,0,0,1,3.45,1.15c0-2.05-.08-4.06-.11-5.35-2.62.21-7.65.86-9.59,1.25-.75.15-1.69.4-2.37.61-.9.29-.93.62-1.76.62-1.18,0-3-1.73-3-3a1.56,1.56,0,0,1,.54-1.22h.21a2.47,2.47,0,0,0,2.73,2c1.9,0,11.13-1.11,13.21-1.29-.11-2.4-.11-3-.18-3.48-.14-.86-.36-1.76-1.94-1.76-.32,0-.61,0-.93.07l-.11-.14a1.9,1.9,0,0,1,2-1.29c1.65,0,3.34.93,3.37,1.76,0,.64-.39,1-.5,1.43A17,17,0,0,0,198,8.08c2.72-.18,5.13-.29,6.35-.32A3.35,3.35,0,0,0,207,6.82C208.77,7.29,210.92,8.11,210.92,9ZM192.86,23.59c3.66,0,4.27-2.26,4.27-5.39a3.89,3.89,0,0,0-4-3.66c-2.22,0-4.16,1.69-4.16,4.88A4.12,4.12,0,0,0,192.86,23.59Z" transform="translate(-0.25 -0.25)"/><path class="cls-3" d="M197.13,18.2c0,3.13-.61,5.39-4.27,5.39A4.12,4.12,0,0,1,189,19.42c0-3.19,1.94-4.88,4.16-4.88A3.89,3.89,0,0,1,197.13,18.2Z" transform="translate(-0.25 -0.25)"/><path d="M167.33,8.58c5.35,0,7.75,2.8,7.75,6.89,0,3.56-3.41,6.29-7.75,6.29-2.87,0-4.81-1.44-6.75-3.77l.61-.54c2,1.83,3.52,2.84,6.1,2.84,3.67,0,5.93-2.19,5.93-5,0-3.24-2-5.68-6-5.68-3.41,0-7.86,1.91-11.7,4.24.69,1.32,1.46,2.86,2.21,4.43a87.79,87.79,0,0,1,4,9.32,12.25,12.25,0,0,1,.76,3.66c0,.9-.22,1.44-1.22,1.44-.83,0-1-1.62-1.4-3.3a58.84,58.84,0,0,0-5.57-14.8c-1.62,1-3.55,2.16-5,3.06s-1.69,1.68-2.48,1.68a3.48,3.48,0,0,1-3.16-2.87,1.84,1.84,0,0,1,.9-1.65l.07.07a1,1,0,0,0,0,.29,1.66,1.66,0,0,0,1.58,1.61c1.5,0,4.12-1.4,7.46-3.26-.61-1.15-1.25-2.3-1.86-3.34-1.44-2.41-2.3-3.2-2.34-4.17V6a2.26,2.26,0,0,1,2.19-2.08,11.93,11.93,0,0,1,3.16.86l-.18.79a5.73,5.73,0,0,0-1.43-.22c-.47,0-1.55.15-1.55,1.05s.79,2.26,2.09,4.27c.32.54.79,1.33,1.29,2.22a44.48,44.48,0,0,1,8.69-3.77c-.36-.18-.94-.5-1.44-.79l.32-.64a3.56,3.56,0,0,0,1.15.25c.15,0,.86-.11,1-.11,0-1.25-.75-3.55-4.73-4.74l.39-.75c4.78,1,6.43,3.05,6.46,5.28a1.62,1.62,0,0,1-.43,1A7,7,0,0,1,167.33,8.58Z" transform="translate(-0.25 -0.25)"/><path d="M139,17.09c0,4.35-2.3,8.08-6.78,10.23-3.41,1.62-9.45,2.55-16,2.73l-.21-1c6.53-.36,12.31-1.73,15.4-3.34A9.65,9.65,0,0,0,136.91,17c0-5.49-3.3-8.54-8.72-8.54-4.56,0-10,2-13.75,4-1.76.93-2.12,1.76-3.31,1.76-.93,0-3.66-1.37-3.66-3.34a1.84,1.84,0,0,1,.72-1.72h.25a2.43,2.43,0,0,0,2.48,2.29c2.69,0,10-4.23,17.41-4.23C134.69,7.22,139,10.66,139,17.09Z" transform="translate(-0.25 -0.25)"/><path d="M102.4,13.54c0,.28-.28.39-.64.39a3.33,3.33,0,0,1-1.33-.32,3.31,3.31,0,0,0-1.58-.29,7.3,7.3,0,0,0-1.36.14c-3.85.94-4.28,2.66-4.28,5.14v1a31.69,31.69,0,0,0,.51,3.66c0,.32.14.86.17,1.19,3.31,1.22,8,3.23,8,5.67,0,.39-.65.68-1.12.68s-2.15-2.87-6.75-4.85a28,28,0,0,1,.15,2.8c0,2-2,3.81-6.36,3.81-4.13,0-6.85-2-6.85-4.6s3-4.45,7-4.45a19.46,19.46,0,0,1,4.42.58c-.11-1.26-.43-3.16-.47-4.38V19c0-2.76.72-5.06,5.49-6.5v-.17a8.18,8.18,0,0,0-1.54-.15,16.28,16.28,0,0,0-6.07,1.4l-.39-.79A15.71,15.71,0,0,1,96.34,11C100.61,11,102.4,12.42,102.4,13.54ZM92.67,28.4a30.09,30.09,0,0,0-.18-3.12,14.33,14.33,0,0,0-4.7-.83c-2.83,0-5.38,1.4-5.38,3.3,0,2.16,1.79,3.34,5.38,3.34S92.67,30,92.67,28.4Z" transform="translate(-0.25 -0.25)"/><path d="M93,6.5c0,.64-.64,1-2.33,1.54a70.81,70.81,0,0,1-8.44,2.09,71,71,0,0,1-7.36,15.61,1.57,1.57,0,0,1-.93.69c-.4,0-.87-.54-.87-1.22a2.15,2.15,0,0,1,.58-1.55c2.3-1.87,5.71-8.33,7-13.28-1.4.18-2.8.32-3.38.32-2.15,0-3.84-.54-4.24-2.33l.54-.47a3.31,3.31,0,0,0,3.27,1.61A27.85,27.85,0,0,0,81,9.12a19.62,19.62,0,0,0,.71-4.42c0-.53,0-1.4-1.61-1.4a4,4,0,0,0-.83.11l-.14-.29a2.52,2.52,0,0,1,2-1.15c1.58,0,3.31.94,3.31,1.76s-.68.65-1.11,2.48C83.2,7,82.8,8,82.55,8.8a30.38,30.38,0,0,0,5.24-1.4c1-.51,1.44-.94,1.62-1.55C92.06,5.74,93,6,93,6.5Z" transform="translate(-0.25 -0.25)"/><path class="cls-4" d="M92.49,25.28a30.09,30.09,0,0,1,.18,3.12c0,1.62-1.36,2.69-4.88,2.69s-5.38-1.18-5.38-3.34c0-1.9,2.55-3.3,5.38-3.3A14.33,14.33,0,0,1,92.49,25.28Z" transform="translate(-0.25 -0.25)"/><path d="M53.79,17.52a2,2,0,0,1-2,2.05,2,2,0,1,1,2-2.05Z" transform="translate(-0.25 -0.25)"/><path d="M29.33.25c2.55,1.47,4,3.63,4,5.1,0,1-.54,1.36-1,1.36s-.9-.46-1-1.22A9.29,9.29,0,0,0,28.68.79Z" transform="translate(-0.25 -0.25)"/><path d="M27.57,9.91c2.44.5,3.66,1.11,3.66,2.15,0,.43-.5.54-1.18.54a18,18,0,0,1-2.16-.21,27.88,27.88,0,0,0-3.55-.15c-.72,0-1.47,0-2.12,0v4.34c0,6.68-2.59,12.71-11.49,16.59l-.54-.72c7.87-4,10.38-9.69,10.38-16V12.35c-3.09.14-7.43.65-10.52,1.08.07,2.08.14,3.95.21,5.1s.22,2.26.22,3.48c0,.79-.29,1.18-.9,1.18-.9,0-1.36-1.83-1.58-3.05.43-.68.54-1.36.54-3.05,0-.86,0-2.12,0-3.45-1.12.18-2,.33-2.81.47a3.19,3.19,0,0,0-1.22.43A1.45,1.45,0,0,1,3.34,15,3.65,3.65,0,0,1,.25,12c0-.36.18-1.33.75-1.33.61,1.54,1.33,1.94,3.27,1.94a36.83,36.83,0,0,0,4.2-.33c-.25-6.39-.4-6.46-.93-6.75A2.87,2.87,0,0,0,6,5.17L5.92,5a1.45,1.45,0,0,1,1.36-.82c1.08,0,3.16.71,3.16,2a2.75,2.75,0,0,1-.28,1A5.4,5.4,0,0,0,9.94,8.8c0,1,0,2,.07,3.34,3-.29,7.83-.87,10.56-1.05,0-5.38-.11-7.18-.94-7.57a4.6,4.6,0,0,0-1.86-.47l0,0a1.34,1.34,0,0,1,1.11-1.08,5.12,5.12,0,0,1,3.7,1.73,1.18,1.18,0,0,1,.22.64,1.37,1.37,0,0,1-.25.86,2.35,2.35,0,0,0-.29,1.44V11a28.32,28.32,0,0,0,4.2-.39A5.07,5.07,0,0,0,27.57,9.91Z" transform="translate(-0.25 -0.25)"/><path d="M25,1.83C27.5,3.3,28.9,5.42,28.9,6.89c0,1-.58,1.4-1.08,1.4s-.86-.43-.93-1.18a8.64,8.64,0,0,0-1.57-3.58,7.57,7.57,0,0,0-1-1.16Z" transform="translate(-0.25 -0.25)"/></g></g></g></svg>